<svg width="115" height="115" viewBox="0 0 115 115" fill="none" xmlns="http://www.w3.org/2000/svg">
<path fill-rule="evenodd" clip-rule="evenodd" d="M36 22C27.7157 22 21 28.7157 21 37V97C21 105.284 27.7157 112 36 112H80C88.2843 112 95 105.284 95 97V37C95 28.7157 88.2843 22 80 22H36ZM41 32C35.4772 32 31 36.4772 31 42V92C31 97.5229 35.4772 102 41 102H75C80.5228 102 85 97.5229 85 92V42C85 36.4772 80.5228 32 75 32H41Z" fill="#CE1212"/>
<rect x="31" y="4" width="54" height="14" rx="5" fill="#CE1212"/>
</svg>
